# xmcd CD database file
#
# Track frame offsets:
#	150
#	43062
#	78935
#	124155
#	141777
#	167027
#	195465
#	218962
#	238257
#	255635
#	278760
#
# Disc length: 4170 seconds
#
# Revision: 0
# Processed by: cddbd v1.5.2PL0 Copyright (c) Steve Scherf et al.
# Submitted via: CDex 1.50Beta5
#
DISCID=9e10480b
DTITLE=Bob Degen - Catability
DYEAR=1997
DGENRE=Jazz
TTITLE0=Courage
TTITLE1=My Old Flame
TTITLE2=Sophie
TTITLE3=Worth A Week´s Anguish
TTITLE4=Catability
TTITLE5=MC
TTITLE6=Ode To Sammy Davis Jr.
TTITLE7=Colleen
TTITLE8=Fading Day
TTITLE9=Round Trip
TTITLE10=Parting
EXTD=YEAR: 1997
EXTT0=
EXTT1=
EXTT2=
EXTT3=
EXTT4=
EXTT5=
EXTT6=
EXTT7=
EXTT8=
EXTT9=
EXTT10=
PLAYORDER=
